<svg xmlns="http://www.w3.org/2000/svg" viewBox="0 0 520 360" role="img" aria-label=" 8D;Q=0O 0@<0BC@0 Ø8">
  <defs>
    <linearGradient id="steel" x1="0" y1="0" x2="0" y2="1">
      <stop offset="0%" stop-color="#e8ebef"/>
      <stop offset="50%" stop-color="#8f969f"/>
      <stop offset="100%" stop-color="#626970"/>
    </linearGradient>
    <filter id="sh"><feDropShadow dx="0" dy="4" stdDeviation="3" flood-color="#000" flood-opacity=".18"/></filter>
  </defs>
  <rect width="520" height="360" fill="#fafbfc"/>
  <ellipse cx="260" cy="270" rx="130" ry="12" fill="#e2e5e9"/>
  <g filter="url(#sh)">
    <g transform="translate(200 95) rotate(-18 60 80)">
      <rect x="0" y="0" width="240" height="16" rx="8" fill="url(#steel)"/>
      <rect x="0" y="22" width="240" height="16" rx="8" fill="url(#steel)"/>
      <rect x="0" y="44" width="240" height="16" rx="8" fill="url(#steel)"/>
      <rect x="0" y="66" width="240" height="16" rx="8" fill="url(#steel)"/>
      <rect x="0" y="88" width="240" height="16" rx="8" fill="url(#steel)"/>
      <rect x="0" y="110" width="240" height="16" rx="8" fill="url(#steel)"/>
    </g>
    <g transform="translate(215 108) rotate(8 55 70)">
      <rect x="0" y="10" width="220" height="16" rx="8" fill="url(#steel)" opacity=".92"/>
      <rect x="0" y="32" width="220" height="16" rx="8" fill="url(#steel)" opacity=".92"/>
      <rect x="0" y="54" width="220" height="16" rx="8" fill="url(#steel)" opacity=".92"/>
    </g>
  </g>
  <path d="M248 230 Q260 210 272 230" fill="none" stroke="#c5c9cf" stroke-width="3"/>
</svg>
